<svg id="Layer_3" enable-background="new 0 0 64 64" height="512" viewBox="0 0 64 64" width="512" xmlns="http://www.w3.org/2000/svg"><path d="m19.22 51.55-3.22 6.45-1.55 3.11c-.28.54-.84.89-1.45.89h-2.38c-.9 0-1.62-.72-1.62-1.62 0-.25.06-.5.17-.72l5.11-10.24c1.49.97 3.16 1.7 4.94 2.13z" fill="#d3a06c"/><path d="m36.83 59.66c.11.22.17.47.17.72 0 .9-.72 1.62-1.62 1.62h-2.38c-.61 0-1.17-.35-1.45-.89l-1.55-3.11-3.22-6.45c1.78-.43 3.45-1.16 4.94-2.13z" fill="#d3a06c"/><path d="m31.72 49.42c-1.49.97-3.16 1.7-4.94 2.13-1.21.29-2.48.45-3.78.45s-2.57-.16-3.78-.45c-1.78-.43-3.45-1.16-4.94-2.13-4.38-2.85-7.28-7.8-7.28-13.42 0-8.84 7.16-16 16-16 3.65 0 7.01 1.24 9.7 3.3l-2.85 2.85c-1.95-1.35-4.3-2.15-6.85-2.15-6.63 0-12 5.37-12 12s5.37 12 12 12 12-5.37 12-12c0-2.55-.8-4.9-2.15-6.85l2.85-2.85c2.06 2.69 3.3 6.05 3.3 9.7 0 5.62-2.9 10.57-7.28 13.42z" fill="#fcd770"/><path d="m32.85 29.15c1.35 1.95 2.15 4.3 2.15 6.85 0 6.63-5.37 12-12 12s-12-5.37-12-12 5.37-12 12-12c2.55 0 4.9.8 6.85 2.15l-4.38 4.38c-.76-.34-1.59-.53-2.47-.53-3.31 0-6 2.69-6 6s2.69 6 6 6 6-2.69 6-6c0-.88-.19-1.71-.53-2.47z" fill="#ff826e"/><path d="m28.47 33.53c.34.76.53 1.59.53 2.47 0 3.31-2.69 6-6 6s-6-2.69-6-6 2.69-6 6-6c.88 0 1.71.19 2.47.53l-.35.35c-1.36 1.36-2.12 3.2-2.12 5.12 1.92 0 3.76-.76 5.12-2.12z" fill="#ffeaa7"/><path d="m46.71 13.06c.19.31.29.68.29 1.06 0 .56-.22 1.1-.62 1.5l-7.2 7.2-3.48 3.48-2.85 2.85-4.38 4.38-.35.35c-1.36 1.36-3.2 2.12-5.12 2.12 0-1.92.76-3.76 2.12-5.12l.35-.35 4.38-4.38 2.85-2.85 3.48-3.48 7.2-7.2c.4-.4.94-.62 1.5-.62.38 0 .75.1 1.06.29.16.09.31.2.44.33s.24.28.33.44z" fill="#cf9e76"/><path d="m45 2 .94 10.29c-.31-.19-.68-.29-1.06-.29-.56 0-1.1.22-1.5.62l-7.2 7.2 1.82-11.82 6-6z" fill="#e6e9ed"/><path d="m57 14v1l-6 6-11.82 1.82 7.2-7.2c.4-.4.62-.94.62-1.5 0-.38-.1-.75-.29-1.06z" fill="#e6e9ed"/><path d="m47.245 12.109c-.109-.128-.226-.245-.354-.354l-.978-10.755h-2.327l-6.524 6.524-1.818 11.818-2.654 2.654c-2.842-1.955-6.136-2.996-9.59-2.996-9.374 0-17 7.626-17 17 0 5.642 2.774 10.636 7.017 13.73l-4.74 9.481c-.181.362-.277.767-.277 1.171 0 1.444 1.174 2.618 2.618 2.618h2.382c.999 0 1.896-.555 2.342-1.447l1.276-2.553h12.764l1.276 2.552c.446.893 1.343 1.448 2.342 1.448h2.382c1.444 0 2.618-1.174 2.618-2.618 0-.404-.096-.809-.276-1.171l-4.74-9.481c4.242-3.094 7.016-8.088 7.016-13.73 0-3.454-1.041-6.748-2.997-9.589l2.654-2.654 11.818-1.818 6.525-6.525v-2.327zm-13.245 23.891c0 6.065-4.935 11-11 11s-11-4.935-11-11 4.935-11 11-11c1.847 0 3.636.466 5.243 1.343l-3.023 3.023c-.717-.242-1.46-.366-2.22-.366-3.86 0-7 3.14-7 7s3.14 7 7 7 7-3.14 7-7c0-.76-.124-1.503-.366-2.22l3.023-3.023c.877 1.607 1.343 3.396 1.343 5.243zm-11 1c1.804 0 3.514-.584 4.931-1.648.028.215.069.429.069.648 0 2.757-2.243 5-5 5s-5-2.243-5-5 2.243-5 5-5c.219 0 .433.041.648.069-1.064 1.417-1.648 3.127-1.648 4.931v1zm4.414-3.828c-.917.917-2.068 1.513-3.319 1.733.22-1.25.816-2.402 1.733-3.319l18.258-18.258c.212-.211.493-.328.793-.328.618 0 1.121.503 1.121 1.121 0 .3-.117.581-.328.793zm11.524-24.696 5.176-5.176.7 7.706c-.809.017-1.569.334-2.143.908l-5.038 5.038zm-25.385 52.183c-.106.21-.317.341-.553.341h-2.382c-.341 0-.618-.277-.618-.618 0-.095.022-.191.065-.276l4.64-9.281c.975.548 2.007 1.003 3.088 1.352zm4.065-3.659 2.158-4.316c1.045.202 2.121.316 3.224.316s2.179-.114 3.224-.316l2.158 4.316zm18.317 3.105c.043.086.065.182.065.277 0 .341-.277.618-.618.618h-2.382c-.236 0-.447-.131-.553-.342l-4.241-8.481c1.081-.349 2.113-.804 3.088-1.352zm2.065-24.105c0 8.271-6.729 15-15 15s-15-6.729-15-15 6.729-15 15-15c2.922 0 5.718.839 8.155 2.431l-1.445 1.445c-2.027-1.227-4.328-1.876-6.71-1.876-7.168 0-13 5.832-13 13s5.832 13 13 13 13-5.832 13-13c0-2.381-.649-4.683-1.876-6.71l1.445-1.445c1.592 2.437 2.431 5.233 2.431 8.155zm12.524-15.938-8.476 1.304 5.038-5.038c.574-.574.891-1.333.908-2.143l7.706.7z"/></svg>